<svg width="45" height="15" viewBox="0 0 45 15" fill="none" xmlns="http://www.w3.org/2000/svg">
<path fill-rule="evenodd" clip-rule="evenodd" d="M9.01758 8.89258H5.48242C5.00065 8.89258 4.70117 8.93164 4.58398 9.00977C4.4668 9.08789 4.31055 9.3483 4.11523 9.79102L3.48047 11.2266C3.19401 11.8841 3.05078 12.3724 3.05078 12.6914C3.05078 12.9974 3.12728 13.2187 3.28027 13.3555C3.43327 13.4922 3.73437 13.6094 4.18359 13.707C4.37891 13.7461 4.47982 13.8242 4.48633 13.9414C4.49284 14.0521 4.40169 14.1074 4.21289 14.1074C4.14128 14.1074 4.0306 14.1042 3.88086 14.0977L2.94336 14.0488C2.63086 14.0358 2.26953 14.0293 1.85938 14.0293C1.67057 14.0293 1.52409 14.0326 1.41992 14.0391C1.08789 14.0651 0.905599 14.0781 0.873047 14.0781C0.697265 14.0781 0.609375 14.0195 0.609375 13.9023C0.609375 13.7982 0.664713 13.7298 0.775391 13.6973L1.13672 13.5898C1.26693 13.5508 1.44271 13.3929 1.66406 13.1162C1.88542 12.8395 2.06771 12.5514 2.21094 12.252L2.49414 11.6074L7.51367 0.464844C7.59831 0.26953 7.69271 0.171875 7.79688 0.171875C7.90104 0.171875 7.98893 0.266275 8.06055 0.455078L12.2598 11.1973L12.4746 11.7246C12.7806 12.5124 13.0345 13.0023 13.2363 13.1943C13.4382 13.3864 13.8483 13.5378 14.4668 13.6484C14.6686 13.6875 14.7663 13.7689 14.7598 13.8926C14.7533 14.0033 14.6621 14.0586 14.4863 14.0586C14.4277 14.0586 14.304 14.0521 14.1152 14.0391C13.7767 14.0065 13.1745 13.9902 12.3086 13.9902C11.4036 13.9902 10.8372 14.0098 10.6094 14.0488C10.4727 14.0749 10.3717 14.0879 10.3066 14.0879C10.1374 14.0879 10.0527 14.0195 10.0527 13.8828C10.0527 13.7786 10.1341 13.7103 10.2969 13.6777L10.5996 13.6094C10.9251 13.5443 11.0879 13.3229 11.0879 12.9453C11.0879 12.6003 10.8893 11.9134 10.4922 10.8848L10.0039 9.5957C9.86719 9.23763 9.75977 9.03092 9.68164 8.97559C9.60352 8.92025 9.38216 8.89258 9.01758 8.89258ZM9.13477 7.33008L7.60156 3.46289L7.52344 3.25781C7.44531 3.04948 7.36068 2.94206 7.26953 2.93555C7.22396 2.92904 7.17188 2.99088 7.11328 3.12109L5.20898 7.34961C5.12435 7.5319 5.08203 7.65234 5.08203 7.71094C5.08203 7.88021 5.23177 7.96484 5.53125 7.96484L5.79492 7.97461H8.74414C9.06966 7.97461 9.23242 7.89323 9.23242 7.73047C9.23242 7.6849 9.21615 7.61003 9.18359 7.50586L9.13477 7.33008ZM18.3458 2.22266V10.3672L18.336 11.3145L18.3653 12.1348C18.4369 12.9225 18.7299 13.3815 19.2442 13.5117C19.6023 13.6094 19.8725 13.6582 20.0548 13.6582C20.2501 13.6582 20.351 13.7168 20.3575 13.834C20.3705 14.0033 20.2566 14.0879 20.0157 14.0879C19.905 14.0879 19.6869 14.0749 19.3614 14.0488C19.1531 14.0358 18.8145 14.0293 18.3458 14.0293L17.6524 14.0098L16.8907 14.0195C16.5066 14.0195 16.2169 14.0326 16.0216 14.0586C15.7676 14.0911 15.5821 14.1074 15.4649 14.1074C15.2956 14.1074 15.211 14.0423 15.211 13.9121C15.211 13.7884 15.3184 13.7103 15.5333 13.6777C16.0411 13.5996 16.3878 13.3132 16.5733 12.8184C16.7589 12.3236 16.8516 11.4316 16.8516 10.1426V4.21484C16.8516 2.84765 16.7703 1.9834 16.6075 1.62207C16.4447 1.26074 16.0378 1.04427 15.3868 0.972656C15.211 0.959635 15.1264 0.894532 15.1329 0.777344C15.1394 0.627603 15.2663 0.552734 15.5137 0.552734C15.6374 0.552734 15.8035 0.56901 16.0118 0.601562C16.4219 0.660157 16.7605 0.689453 17.0274 0.689453C17.4441 0.689453 18.0495 0.653646 18.8438 0.582031C19.254 0.549479 19.5893 0.533203 19.8497 0.533203C21.2104 0.533203 22.3155 0.860348 23.1651 1.51465C24.0147 2.16895 24.4395 3.02343 24.4395 4.07812C24.4395 5.35417 23.9187 6.36002 22.877 7.0957C22.0958 7.64258 21.269 7.91602 20.3966 7.91602C19.9864 7.91602 19.6104 7.87044 19.2686 7.7793C18.9268 7.68815 18.7624 7.5905 18.7755 7.48633C18.7885 7.4082 18.8503 7.36914 18.961 7.36914C19.0131 7.36914 19.0782 7.37891 19.1563 7.39844C19.3061 7.44401 19.5469 7.4668 19.879 7.4668C20.8165 7.4668 21.5668 7.20964 22.13 6.69531C22.6931 6.18099 22.9747 5.4974 22.9747 4.64453C22.9747 3.66145 22.6036 2.84766 21.8614 2.20312C21.1192 1.55859 20.1785 1.23633 19.0391 1.23633C18.7787 1.23633 18.5997 1.28516 18.502 1.38281C18.4044 1.48047 18.3555 1.66601 18.3555 1.93945L18.3458 2.22266ZM28.8947 2.22266V10.3672L28.8849 11.3145L28.9142 12.1348C28.9858 12.9225 29.2788 13.3815 29.7931 13.5117C30.1512 13.6094 30.4214 13.6582 30.6037 13.6582C30.799 13.6582 30.8999 13.7168 30.9064 13.834C30.9194 14.0033 30.8055 14.0879 30.5646 14.0879C30.4539 14.0879 30.2358 14.0749 29.9103 14.0488C29.702 14.0358 29.3634 14.0293 28.8947 14.0293L28.2013 14.0098L27.4396 14.0195C27.0555 14.0195 26.7658 14.0326 26.5705 14.0586C26.3165 14.0911 26.131 14.1074 26.0138 14.1074C25.8445 14.1074 25.7599 14.0423 25.7599 13.9121C25.7599 13.7884 25.8673 13.7103 26.0822 13.6777C26.59 13.5996 26.9367 13.3132 27.1222 12.8184C27.3078 12.3236 27.4005 11.4316 27.4005 10.1426V4.21484C27.4005 2.84765 27.3192 1.9834 27.1564 1.62207C26.9936 1.26074 26.5867 1.04427 25.9357 0.972656C25.7599 0.959635 25.6753 0.894532 25.6818 0.777344C25.6883 0.627603 25.8152 0.552734 26.0626 0.552734C26.1863 0.552734 26.3524 0.56901 26.5607 0.601562C26.9708 0.660157 27.3094 0.689453 27.5763 0.689453C27.993 0.689453 28.5984 0.653646 29.3927 0.582031C29.8029 0.549479 30.1382 0.533203 30.3986 0.533203C31.7593 0.533203 32.8644 0.860348 33.714 1.51465C34.5636 2.16895 34.9884 3.02343 34.9884 4.07812C34.9884 5.35417 34.4676 6.36002 33.4259 7.0957C32.6447 7.64258 31.8179 7.91602 30.9455 7.91602C30.5353 7.91602 30.1593 7.87044 29.8175 7.7793C29.4757 7.68815 29.3113 7.5905 29.3244 7.48633C29.3374 7.4082 29.3992 7.36914 29.5099 7.36914C29.562 7.36914 29.6271 7.37891 29.7052 7.39844C29.855 7.44401 30.0958 7.4668 30.4279 7.4668C31.3654 7.4668 32.1157 7.20964 32.6789 6.69531C33.242 6.18099 33.5236 5.4974 33.5236 4.64453C33.5236 3.66145 33.1525 2.84766 32.4103 2.20312C31.6681 1.55859 30.7274 1.23633 29.588 1.23633C29.3276 1.23633 29.1486 1.28516 29.0509 1.38281C28.9533 1.48047 28.9044 1.66601 28.9044 1.93945L28.8947 2.22266ZM40.508 0.40625C41.2046 0.40625 41.7938 0.50716 42.2756 0.708984L42.9494 0.992188C43.008 1.01823 43.0666 1.03125 43.1252 1.03125C43.2033 1.03125 43.2815 0.998698 43.3596 0.933594L43.4963 0.816406C43.5158 0.790364 43.5517 0.777344 43.6037 0.777344C43.7665 0.770833 43.8479 0.930337 43.8479 1.25586C43.8479 1.36654 43.8902 1.69531 43.9748 2.24219L44.1311 3.24805C44.1636 3.46289 44.1799 3.59635 44.1799 3.64844C44.1799 3.85026 44.1115 3.95117 43.9748 3.95117C43.8707 3.95117 43.7665 3.79492 43.6623 3.48242C43.428 2.77929 42.9511 2.19987 42.2317 1.74414C41.5123 1.28841 40.7099 1.06055 39.8244 1.06055C39.1213 1.06055 38.5337 1.26725 38.0617 1.68066C37.5897 2.09408 37.3537 2.61002 37.3537 3.22852C37.3537 3.77539 37.5067 4.24739 37.8127 4.64453C38.0796 4.98307 38.371 5.23047 38.6867 5.38672C39.0025 5.54297 39.7789 5.82617 41.0158 6.23633C43.4247 7.02409 44.6291 8.3164 44.6291 10.1133C44.6291 11.3307 44.1864 12.3268 43.301 13.1016C42.4156 13.8763 41.2795 14.2637 39.8928 14.2637C39.3915 14.2637 38.8397 14.1921 38.2375 14.0488C37.6353 13.9056 37.1942 13.7396 36.9143 13.5508C36.7971 13.4727 36.719 13.3896 36.6799 13.3018C36.6408 13.2139 36.5822 12.9876 36.5041 12.623C36.4911 12.571 36.4097 12.2747 36.26 11.7344C36.0907 11.1484 36.0061 10.7318 36.0061 10.4844C36.0061 10.2891 36.0712 10.1947 36.2014 10.2012C36.3186 10.2077 36.4227 10.3672 36.5139 10.6797C36.7483 11.487 37.2431 12.1641 37.9983 12.7109C38.7535 13.2578 39.5738 13.5312 40.4592 13.5312C41.3576 13.5312 42.1177 13.2676 42.7395 12.7402C43.3612 12.2129 43.6721 11.5716 43.6721 10.8164C43.6721 10.0937 43.3856 9.48503 42.8127 8.99023C42.5197 8.73633 41.6734 8.375 40.2737 7.90625C38.8283 7.41797 37.8046 6.87761 37.2024 6.28516C36.6002 5.69271 36.299 4.92448 36.299 3.98047C36.299 2.92578 36.6913 2.06641 37.4758 1.40234C38.2603 0.738278 39.271 0.40625 40.508 0.40625Z" fill="black"/>
</svg>
